<svg width="59" height="69" viewBox="0 0 59 69" fill="none" xmlns="http://www.w3.org/2000/svg">
<path d="M25.6321 3.81316L21.8296 7.62632L22.1465 34.8178L22.4633 61.9638L25.7227 65.2776C27.4882 67.048 29.1631 68.5461 29.4347 68.5461C29.7063 68.5461 31.4718 66.9572 33.4183 65.0053L36.904 61.5099V45.9395V30.4145H34.0974H31.2907L34.0974 27.5546L36.904 24.6947V16.1151V7.49013L33.1467 3.72237L29.4347 0L25.6321 3.81316ZM32.4677 5.175L35.048 7.98948L35.3196 15.8882L35.6365 23.8322L32.6035 27.1007L29.5705 30.4145H26.447H23.3235V19.4289V8.44342L26.3564 5.35658C28.0314 3.63158 29.5252 2.31513 29.661 2.31513C29.7969 2.36053 31.0644 3.63158 32.4677 5.175ZM35.546 46.2118V60.6474L32.4677 63.6888L29.3894 66.7303L26.6281 63.9158L23.8214 61.0559L23.5498 46.8474C23.414 39.0395 23.414 32.4572 23.5498 32.2303C23.7309 31.9579 26.3112 31.7763 29.7063 31.7763H35.546V46.2118Z" fill="black"/>
<path d="M15.18 15.1165L9.65723 20.6546V34.4546V48.2546L15.3158 53.9744L20.9744 59.6941V34.5908C20.9744 20.8362 20.9291 9.53291 20.8386 9.53291C20.7933 9.53291 18.2583 12.0296 15.18 15.1165ZM19.39 55.3362C19.2542 55.4724 17.3076 53.7474 15.0895 51.523L11.0153 47.4375V34.5V21.5625L15.2253 17.3408L19.39 13.1645L19.5258 34.0915C19.571 45.6217 19.5258 55.2 19.39 55.3362Z" fill="black"/>
<path d="M37.7588 34.4546C37.7588 56.7434 37.8493 59.5125 38.4378 59.0132C39.0263 58.5592 39.1168 56.6072 39.1168 46.9382V35.4079H43.4174H47.7179V42.5349C47.7179 49.5711 47.7179 49.6165 48.6232 48.7993C49.4833 48.0276 49.5286 47.3921 49.5286 34.5454V21.1086L43.6437 15.2072L37.7588 9.30593V34.4546ZM47.7179 27.5546V33.5921H43.5079H39.3432L39.4337 25.5118C39.479 21.1086 39.5695 16.5691 39.5695 15.4342V13.3914L43.6437 17.477L47.7179 21.5625V27.5546Z" fill="black"/>
<path d="M7.98748 23.2421C7.62533 23.6053 7.44425 25.4665 7.44425 28.6895V33.5921H4.72814H2.01203V31.504C2.01203 29.6882 1.92149 29.4612 1.333 29.9605C0.38236 30.7322 0.38236 38.2224 1.28773 39.0395C1.87622 39.4934 1.96676 39.2211 2.10256 37.3599L2.23837 35.1809H4.72814H7.21791L7.44425 40.3559C7.58006 43.9421 7.85167 45.6217 8.25909 45.7579C8.6665 45.8941 8.80231 43.3974 8.80231 34.3184C8.80231 27.9178 8.75704 22.6974 8.6665 22.6974C8.57597 22.6974 8.30436 22.9244 7.98748 23.2421Z" fill="black"/>
<path d="M50.664 28.9618V34.954H52.0221C52.7916 34.954 53.3801 35.0901 53.3801 35.2717C53.3801 35.4987 52.6558 37.9954 51.7957 40.8553C50.9356 43.7151 50.3019 46.0757 50.3924 46.1665C50.8904 46.6658 52.2937 43.8967 53.6065 39.8566C54.7835 36.1796 55.3267 35.1809 55.9604 35.1809C56.5942 35.1809 56.8205 35.6349 57.0016 37.4053C57.228 39.5388 57.228 39.5842 58.0428 38.7217C58.7218 37.9046 58.8124 37.2691 58.5407 34.1368L58.2239 30.5053L54.4666 26.7375L50.664 22.9243V28.9618ZM57.0016 32.548C57.0016 33.5013 56.8205 33.5921 54.5118 33.5921H52.0221V30.0967V26.6013L54.5118 29.0526C56.0962 30.5961 57.0016 31.9125 57.0016 32.548Z" fill="black"/>
</svg>
