<svg width="81" height="81" viewBox="0 0 81 81" fill="none" xmlns="http://www.w3.org/2000/svg">
<path d="M36.053 4.47632L31.606 8.95263L31.9765 40.873L32.3471 72.7401L36.1589 76.6303C38.2236 78.7086 40.1824 80.4671 40.5001 80.4671C40.8177 80.4671 42.8824 78.602 45.1589 76.3105L49.2354 72.2072V53.9289V35.7039H45.953H42.6707L45.953 32.3467L49.2354 28.9895V18.9178V8.79276L44.8413 4.36974L40.5001 0L36.053 4.47632ZM44.0471 6.075L47.0648 9.37894L47.3824 18.6513L47.753 27.977L44.206 31.8138L40.6589 35.7039H37.006H33.353V22.8079V9.91184L36.9001 6.28815C38.8589 4.26316 40.606 2.71777 40.7648 2.71777C40.9236 2.77105 42.406 4.26316 44.0471 6.075ZM47.6471 54.2487V71.1947L44.0471 74.7651L40.4471 78.3355L37.2177 75.0316L33.9354 71.6743L33.6177 54.9947C33.4589 45.8289 33.4589 38.102 33.6177 37.8355C33.8295 37.5158 36.8471 37.3026 40.8177 37.3026H47.6471V54.2487Z" fill="white"/>
<path d="M22.8707 17.7454L16.4119 24.2467V40.4467V56.6467L23.0295 63.3612L29.6472 70.0757V40.6066C29.6472 24.4599 29.5942 11.1908 29.4883 11.1908C29.4354 11.1908 26.4707 14.1217 22.8707 17.7454ZM27.7942 64.9599C27.6354 65.1197 25.3589 63.0947 22.7648 60.4836L18.0001 55.6875V40.5V25.3125L22.9236 20.3566L27.7942 15.4539L27.953 40.0204C28.006 53.5559 27.953 64.8 27.7942 64.9599Z" fill="white"/>
<path d="M51.353 40.4467C51.353 66.6118 51.4589 69.8625 52.1471 69.2763C52.8354 68.7434 52.9413 66.452 52.9413 55.1013V41.5658H57.9707H63.0001V49.9322C63.0001 58.1921 63.0001 58.2454 64.0589 57.2862C65.0648 56.3803 65.1177 55.6342 65.1177 40.5533V24.7796L58.2354 17.852L51.353 10.9243V40.4467ZM63.0001 32.3467V39.4342H58.0766H53.206L53.3119 29.9487C53.3648 24.7796 53.4707 19.4507 53.4707 18.1184V15.7204L58.2354 20.5164L63.0001 25.3125V32.3467Z" fill="white"/>
<path d="M13.3412 27.2842C12.9176 27.7105 12.7059 29.8954 12.7059 33.6789V39.4342H9.52941H6.35294V36.9829C6.35294 34.8513 6.24706 34.5849 5.55882 35.1711C4.44706 36.077 4.44706 44.8697 5.50588 45.829C6.19412 46.3618 6.3 46.0421 6.45882 43.8572L6.61765 41.2993H9.52941H12.4412L12.7059 47.3743C12.8647 51.5842 13.1824 53.5559 13.6588 53.7158C14.1353 53.8757 14.2941 50.9447 14.2941 40.2868C14.2941 32.773 14.2412 26.6447 14.1353 26.6447C14.0294 26.6447 13.7118 26.9112 13.3412 27.2842Z" fill="white"/>
<path d="M67.2352 33.9987V41.0329H68.8234C69.7234 41.0329 70.4117 41.1928 70.4117 41.4059C70.4117 41.6724 69.5646 44.6033 68.5587 47.9605C67.5528 51.3178 66.8117 54.0888 66.9175 54.1954C67.4999 54.7816 69.1411 51.5309 70.6764 46.7882C72.0528 42.4717 72.6881 41.2993 73.4293 41.2993C74.1705 41.2993 74.4352 41.8322 74.647 43.9105C74.9117 46.4151 74.9117 46.4684 75.8646 45.4559C76.6587 44.4967 76.7646 43.7507 76.447 40.0737L76.0764 35.8105L71.6823 31.3875L67.2352 26.9112V33.9987ZM74.647 38.2086C74.647 39.3276 74.4352 39.4342 71.7352 39.4342H68.8234V35.3309V31.2276L71.7352 34.1053C73.5881 35.9171 74.647 37.4625 74.647 38.2086Z" fill="white"/>
</svg>
