<svg width="60.000000" height="60.000000" viewBox="0 0 60 60" fill="none" xmlns="http://www.w3.org/2000/svg" xmlns:xlink="http://www.w3.org/1999/xlink">
	<desc>
			Created with Pixso.
	</desc>
	<defs/>
	<rect id="Rectangle 1" rx="30.000000" width="60.000000" height="60.000000" fill="#CD8839" fill-opacity="0.320000"/>
	<path id="Vector" d="M31.47 40.5C20.19 40.5 13.76 32.61 13.5 19.5L19.14 19.5C19.33 29.12 23.49 33.2 26.79 34.04L26.79 19.5L32.11 19.5L32.11 27.8C35.36 27.44 38.79 23.66 39.94 19.5L45.26 19.5C44.82 21.65 43.96 23.7 42.71 25.5C41.47 27.3 39.87 28.82 38.02 29.96C40.09 31.01 41.91 32.49 43.37 34.3C44.83 36.12 45.89 38.23 46.5 40.5L40.64 40.5C40.1 38.53 39 36.76 37.49 35.43C35.97 34.09 34.1 33.25 32.11 32.99L32.11 40.5L31.47 40.5Z" fill="#FFFFFF" fill-opacity="1.000000" fill-rule="nonzero"/>
</svg>
