<svg width="40" height="41" viewBox="0 0 40 41" fill="none" xmlns="http://www.w3.org/2000/svg">
<path d="M5.49783 15.5H14.2316M5.49783 19H14.2316M5.49783 23H14.2316M17.5674 26.4734L16.2331 15.071C16.2331 15.071 17.234 8.88463 17.9922 4.09319C18.1809 2.90006 14.899 4.09319 14.899 4.09319C12.9787 2.3316 12.109 1 9.62232 1C7.45446 1 6.11909 2.73669 4.77024 4.09319C4.77024 4.09319 0.776043 2.64341 1.00988 4.09319C1.6164 7.85356 3.07179 15.071 3.07179 15.071L1.31291 26.4734M17.5674 26.4734C17.5674 26.4734 17.9532 31.4468 16.4261 35.0252C14.899 38.6036 11.8662 40.0592 9.32992 40.0592C6.45034 40.0592 4.40774 38.1687 3.07179 35.0252C1.50152 31.3304 1.31291 26.4734 1.31291 26.4734M17.5674 26.4734C17.5674 26.4734 15.7095 31.8107 14.5348 33.6909C13.3601 35.5711 11.9174 36.4145 9.68274 36.4202C7.44814 36.4259 5.61913 34.9039 4.22438 32.9024C2.82964 30.9009 1.31291 26.4734 1.31291 26.4734" stroke="black" stroke-width="1.5" stroke-linecap="round"/>
<path d="M1.43408 26.3521L7.49918 28.8994V11.6746L1.97994 9.85504M17.1427 9.85504L11.6234 11.6746V28.8994L17.4459 26.3521" stroke="black" stroke-width="1.5"/>
<path d="M34.5022 16H25.7684M34.5022 19.5H25.7684M34.5022 23.5H25.7684M22.4326 26.5326L23.7669 15.1302C23.7669 15.1302 22.766 8.94383 22.0078 4.15239C21.8191 2.95927 25.101 4.15239 25.101 4.15239C27.0213 2.3908 27.891 1.0592 30.3777 1.0592C32.5455 1.0592 33.8809 2.79589 35.2298 4.15239C35.2298 4.15239 39.224 2.70262 38.9901 4.15239C38.3836 7.91276 36.9282 15.1302 36.9282 15.1302L38.6871 26.5326M22.4326 26.5326C22.4326 26.5326 22.0468 31.506 23.5739 35.0844C25.101 38.6628 28.1338 40.1184 30.6701 40.1184C33.5497 40.1184 35.5923 38.2279 36.9282 35.0844C38.4985 31.3896 38.6871 26.5326 38.6871 26.5326M22.4326 26.5326C22.4326 26.5326 24.2905 31.8699 25.4652 33.7501C26.6399 35.6303 28.0826 36.4737 30.3173 36.4794C32.5519 36.4851 34.3809 34.9631 35.7756 32.9616C37.1704 30.9601 38.6871 26.5326 38.6871 26.5326" stroke="black" stroke-width="1.5" stroke-linecap="round"/>
<path d="M38.5659 26.4114L32.5008 28.9587V11.7338L38.0201 9.91431M22.8573 9.91431L28.3766 11.7338V28.9587L22.5541 26.4114" stroke="black" stroke-width="1.5"/>
</svg>
