<svg width="42.000000" height="19.999878" viewBox="0 0 42 19.9999" fill="none" xmlns="http://www.w3.org/2000/svg" xmlns:xlink="http://www.w3.org/1999/xlink">
	<desc>
			Created with Pixso.
	</desc>
	<defs/>
	<path id="Vector 4" d="M4.44 11.71C4.44 11.71 2.97 10.98 2.65 10.08C1.96 8.18 7.28 8.02 7.28 8.02C7.28 8.02 2.15 8.2 7.28 4.62C12.41 1.05 16.39 0.46 22.81 1.38C32.29 2.74 36.88 10.76 41 18.99C33.48 11.28 29.78 8.94 19.85 9.19C12.5 10.03 7.84 16.79 5.94 17.77C4.85 18.33 3.56 17.84 2.65 17.34C1.97 16.97 1.58 16.8 1.2 16.03C0.01 13.68 4.44 11.71 4.44 11.71Z" stroke="#000000" stroke-opacity="1.000000" stroke-width="2.000000" stroke-linejoin="round"/>
</svg>
