<svg width="45.042236" height="23.661377" viewBox="0 0 45.0422 23.6614" fill="none" xmlns="http://www.w3.org/2000/svg" xmlns:xlink="http://www.w3.org/1999/xlink">
	<desc>
			Created with Pixso.
	</desc>
	<defs/>
	<path id="Vector 3" d="M1.48 11.75C17.74 26.39 28.9 26.19 43.59 11.75C28.21 -2.35 17.41 -2.82 1.48 11.75Z" stroke="#000000" stroke-opacity="1.000000" stroke-width="2.000000"/>
	<ellipse id="Ellipse 19" cx="22.485596" cy="11.605835" rx="11.427220" ry="10.034514" stroke="#000000" stroke-opacity="1.000000" stroke-width="2.000000"/>
	<path id="Ellipse 20" d="M26.98 11.28C26.98 13.65 25.01 15.56 22.59 15.56C20.16 15.56 18.2 13.65 18.2 11.28C18.2 8.91 20.16 6.99 22.59 6.99C23.26 6.99 23.27 7.84 23.28 8.73C23.29 9.44 23.3 10.18 23.66 10.53C24.02 10.88 24.75 10.82 25.43 10.77C26.24 10.7 26.98 10.64 26.98 11.28ZM23.21 13.49Q22.91 13.56 22.59 13.56Q22.27 13.56 21.97 13.49Q21.8 13.45 21.64 13.38Q21.4 13.28 21.2 13.14Q21.03 13.02 20.88 12.88Q20.66 12.67 20.51 12.42Q20.43 12.29 20.38 12.15Q20.29 11.97 20.25 11.77Q20.2 11.53 20.2 11.28Q20.2 11.03 20.25 10.79Q20.29 10.59 20.38 10.41Q20.43 10.27 20.51 10.14Q20.66 9.89 20.88 9.68Q21.03 9.54 21.2 9.42Q21.25 9.39 21.3 9.35L21.3 9.35Q21.32 9.75 21.37 10.07Q21.53 11.18 22.17 11.86Q22.21 11.91 22.26 11.96Q22.4 12.09 22.54 12.2Q23.25 12.72 24.28 12.8Q24.33 12.8 24.37 12.8Q24.33 12.84 24.3 12.88Q24.15 13.02 23.98 13.14Q23.77 13.28 23.53 13.38Q23.37 13.45 23.21 13.49Z" fill="#000000" fill-opacity="1.000000" fill-rule="evenodd"/>
</svg>
