<svg width="34.000000" height="40.000000" viewBox="0 0 34 40" fill="none" xmlns="http://www.w3.org/2000/svg" xmlns:xlink="http://www.w3.org/1999/xlink">
	<desc>
			Created with Pixso.
	</desc>
	<defs/>
	<path id="Ellipse 21" d="M34 19.96C34 30.99 23 40.92 17 39.93C11 38.93 0 30.99 0 19.96C0 8.93 7.61 0 17 0C26.38 0 34 8.93 34 19.96ZM26.29 33.09Q21.13 38.59 17.32 37.95Q12.54 37.16 7.66 32.29Q3.18 27.83 2.24 22.72Q2 21.36 2 19.96Q2 14.92 4.01 10.89Q5.01 8.89 6.5 7.14Q9.3 3.85 12.81 2.66Q14.79 2 17 2Q19.2 2 21.18 2.66Q24.69 3.85 27.49 7.14Q28.99 8.89 29.98 10.89Q32 14.92 32 19.96Q32 21.33 31.78 22.67Q30.88 28.18 26.29 33.09Z" fill="#000000" fill-opacity="1.000000" fill-rule="evenodd"/>
</svg>
