<svg width="33.023438" height="38.963623" viewBox="0 0 33.0234 38.9636" fill="none" xmlns="http://www.w3.org/2000/svg" xmlns:xlink="http://www.w3.org/1999/xlink">
	<desc>
			Created with Pixso.
	</desc>
	<defs/>
	<path id="Vector 5" d="M6.03 16.54C5.68 19.02 5.98 20.52 6.68 22.92C8.19 28.06 11.5 32.92 15.4 33.5C19.29 34.09 23.24 30.69 26.44 23.31C26.44 23.31 30.12 20.6 27.73 16.54C25.35 12.49 25.06 10.52 21.15 8.59C20.43 9.42 19.67 12.33 19.67 12.33L16.6 5.37C16.6 5.37 6.88 10.6 6.03 16.54ZM3.06 10.56C6.71 5.46 9 -0.61 16.42 1.64C23.31 -1.09 27.94 5.45 30.98 11.64C34.18 18.17 30.02 25.44 29.33 30.19C29.33 30.19 28.61 35.46 29.79 36.49L20.17 32.21C20.17 32.21 18.15 33.56 16.42 33.57C14.66 33.58 12.51 32.21 12.51 32.21L3.06 36.94C6.31 28.11 -2.92 18.94 3.06 10.56Z" stroke="#000000" stroke-opacity="1.000000" stroke-width="2.000000"/>
</svg>
